<svg width="1920" height="1276" viewBox="0 0 1920 1276" fill="none" xmlns="http://www.w3.org/2000/svg">
<path fill-rule="evenodd" clip-rule="evenodd" d="M2110.62 1512.79C2136.24 1509.64 2155.25 1487.52 2154.51 1461.72L2148.6 1256.84C2148.22 1243.55 2152.68 1230.67 2160.07 1219.62C2189.55 1175.58 2206.75 1122.58 2206.75 1065.57C2206.75 1002.82 2185.92 944.939 2150.81 898.496C2142.8 887.896 2137.61 875.298 2137.23 862.016L2119.06 231.432C2118.21 201.989 2092.23 179.655 2062.99 183.245C2044.87 185.469 2027.73 175.234 2018.98 159.213C1961.99 54.8314 1846.49 -10.9222 1720.68 1.50122C1636.23 9.84045 1563.23 51.8157 1513.63 112.844C1482.74 150.841 1406.53 163.326 1361.64 143.778C1328.97 129.552 1292.32 123.227 1254.34 126.977C1214.34 130.927 1177.97 145.552 1147.77 167.751C1121.39 187.144 1084.01 190.836 1054.34 176.977C1020.39 161.113 981.86 153.885 941.858 157.835C894.83 162.479 852.821 181.877 819.963 210.992C800.119 228.574 772.306 236.028 746.312 230.807C725.81 226.689 704.358 225.503 682.465 227.665C662.652 229.621 643.729 234.197 626.007 241.014C606.965 248.339 585.595 248.267 566.613 240.787C535.753 228.627 501.621 223.416 466.344 226.9C424.669 231.015 386.936 246.717 356.02 270.498C341.752 281.473 324.062 287.388 306.063 287.214C298.277 287.139 290.41 287.483 282.484 288.265C235.817 292.874 194.091 312.011 161.346 340.754C143.663 356.276 119.715 363.668 96.3518 360.882C81.0471 359.057 65.3101 358.852 49.3384 360.429C-6.06323 365.9 -54.4998 391.847 -89.2151 430.033C-99.9204 441.808 -113.898 450.533 -129.694 452.472L-133.094 452.89C-158.709 456.035 -177.722 478.159 -176.979 503.957L-141.536 1734.24C-140.688 1763.69 -114.699 1786.02 -85.4631 1782.43L2110.62 1512.79Z" fill="#3DD567"/>
<g style="mix-blend-mode:soft-light" opacity="0.4">
<circle cx="960" cy="722.288" r="365" stroke="url(#paint0_radial_102_413)" stroke-width="680" stroke-dasharray="210 210"/>
</g>
<defs>
<radialGradient id="paint0_radial_102_413" cx="0" cy="0" r="1" gradientUnits="userSpaceOnUse" gradientTransform="translate(960 722.288) rotate(90) scale(705)">
<stop offset="0.439222" stop-color="white"/>
<stop offset="1" stop-color="white" stop-opacity="0"/>
</radialGradient>
</defs>
</svg>
