<svg width="1920" height="1384" viewBox="0 0 1920 1384" fill="none" xmlns="http://www.w3.org/2000/svg">
<path fill-rule="evenodd" clip-rule="evenodd" d="M-173.872 -129.264C-199.488 -126.119 -218.501 -103.994 -217.758 -78.1966L-211.856 126.684C-211.473 139.971 -215.932 152.851 -223.325 163.898C-252.804 207.947 -270 260.94 -270 317.957C-270 380.707 -249.173 438.583 -214.066 485.027C-206.053 495.627 -200.864 508.225 -200.481 521.507L-182.315 1152.09C-181.466 1181.53 -155.478 1203.87 -126.242 1200.28V1200.28C-108.125 1198.05 -90.9791 1208.29 -82.2325 1224.31C-25.2451 1328.69 90.2596 1394.44 216.066 1382.02C300.512 1373.68 373.517 1331.71 423.12 1270.68C454.003 1232.68 530.219 1220.2 575.112 1239.74C607.781 1253.97 644.431 1260.3 682.409 1256.55C722.41 1252.6 758.781 1237.97 788.977 1215.77C815.357 1196.38 852.74 1192.69 882.403 1206.55C916.358 1222.41 954.887 1229.64 994.889 1225.69C1041.92 1221.04 1083.93 1201.65 1116.78 1172.53C1136.63 1154.95 1164.44 1147.49 1190.43 1152.72C1210.94 1156.83 1232.39 1158.02 1254.28 1155.86C1274.1 1153.9 1293.02 1149.33 1310.74 1142.51C1329.78 1135.18 1351.15 1135.26 1370.13 1142.74C1400.99 1154.9 1435.13 1160.11 1470.4 1156.62C1512.08 1152.51 1549.81 1136.81 1580.73 1113.02C1594.99 1102.05 1612.69 1096.13 1630.68 1096.31C1638.47 1096.38 1646.34 1096.04 1654.26 1095.26C1700.93 1090.65 1742.66 1071.51 1775.4 1042.77C1793.08 1027.25 1817.03 1019.85 1840.4 1022.64C1855.7 1024.47 1871.44 1024.67 1887.41 1023.09C1942.81 1017.62 1991.25 991.676 2025.96 953.49C2036.67 941.714 2050.64 932.99 2066.44 931.05L2069.84 930.633C2095.46 927.488 2114.47 905.363 2113.73 879.566L2078.28 -350.721C2077.43 -380.165 2051.45 -402.499 2022.21 -398.909L-173.872 -129.264Z" fill="#3DD567"/>
<g style="mix-blend-mode:soft-light" opacity="0.4">
<circle cx="960" cy="544" r="365" stroke="url(#paint0_radial_101_399)" stroke-width="680" stroke-dasharray="210 210"/>
</g>
<defs>
<radialGradient id="paint0_radial_101_399" cx="0" cy="0" r="1" gradientUnits="userSpaceOnUse" gradientTransform="translate(960 544) rotate(90) scale(705)">
<stop offset="0.439222" stop-color="white"/>
<stop offset="1" stop-color="white" stop-opacity="0"/>
</radialGradient>
</defs>
</svg>
